<svg xmlns="http://www.w3.org/2000/svg" viewBox="0 0 64 64">
  <g stroke-linecap="round">
    <line x1="13" y1="57" x2="51" y2="48" stroke="#6b431f" stroke-width="6"/>
    <line x1="51" y1="57" x2="13" y2="48" stroke="#855735" stroke-width="6"/>
  </g>
  <path d="M32 7 C 41 20 45 25 45 35 C 45 46 39 53 32 53 C 25 53 19 46 19 36 C 19 30 22 27 25 31 C 26 22 29 15 32 7 Z" fill="#e8732a"/>
  <path d="M33 24 C 38 30 39 33 39 39 C 39 45 35 49 32 49 C 28 49 26 45 26 40 C 26 36 28 34 30 36 C 30 31 31 28 33 24 Z" fill="#f2b134"/>
</svg>
